<svg width="24" height="24" viewBox="0 0 24 24" fill="none" xmlns="http://www.w3.org/2000/svg">
<rect width="24" height="24" rx="12" fill="#A55C55"/>
<path d="M10.5988 9.70452L5.89568 6.90283L4.66663 9.09692L8.15713 11.1729L10.5988 9.70452Z" fill="#FFD92F"/>
<path d="M15.8427 11.1729L19.3332 9.09692L18.1042 6.90283L13.3846 9.70452L15.8427 11.1729Z" fill="#FFD92F"/>
<path d="M11.9917 8.87764L13.2208 8.1519V4H10.7627V8.1519L11.9917 8.87764Z" fill="#FFD92F"/>
<path d="M19.3333 14.9028L13.2208 11.2741L11.9918 10.5483L4.66663 14.9028L5.89568 17.0969L9.55005 14.9196C9.66476 14.8521 9.79586 14.8015 9.94335 14.8015C10.4022 14.8015 10.7627 15.1728 10.7627 15.6454V19.9998H13.2208V15.6454C13.2208 15.1728 13.5813 14.8015 14.0402 14.8015C14.1877 14.8015 14.3188 14.8521 14.4335 14.9196L18.1042 17.08L19.3333 14.9028Z" fill="#FFD92F"/>
</svg>
