<svg width="94" height="24" viewBox="0 0 94 24" fill="none" xmlns="http://www.w3.org/2000/svg">
<path d="M39.3793 10.7459C39.0172 10.6554 38.655 10.5648 38.2928 10.4743C36.9799 10.1574 35.8255 9.88573 35.7802 9.1161C35.7802 8.2333 36.8894 8.18803 37.2289 8.18803C37.6816 8.18803 38.1117 8.30121 38.406 8.50493C38.7455 8.73129 38.9266 9.07083 38.904 9.45564H42.2088C42.0277 6.19606 39.0398 5.7207 37.2516 5.7207C35.0332 5.7207 32.4754 6.73932 32.4754 9.61409C32.4754 11.9003 34.422 12.4436 36.3008 12.9642L36.5046 13.0321C38.5871 13.6207 39.1982 13.8018 39.1982 14.5261C39.1982 15.4315 38.3381 15.7485 37.5458 15.7485C36.5272 15.7485 35.8934 15.4315 35.6444 14.7977C35.5539 14.594 35.5086 14.345 35.5086 14.0734H32C32.1132 18.0121 36.3687 18.2158 37.2289 18.2158C38.5192 18.2158 42.7295 17.9215 42.7295 14.1413C42.7295 11.9682 41.0318 11.1986 39.3793 10.7459Z" fill="#A55C55"/>
<path d="M50.1993 5.7207C46.6455 5.7207 44.1555 8.30121 44.1555 11.9682C44.1555 15.6353 46.6455 18.2158 50.1993 18.2158C53.7532 18.2158 56.2431 15.6353 56.2431 11.9682C56.2431 8.30121 53.7532 5.7207 50.1993 5.7207ZM50.1993 15.4089C48.977 15.4089 47.6641 14.5035 47.6641 11.9682C47.6641 9.43301 48.977 8.52757 50.1993 8.52757C51.4217 8.52757 52.7346 9.43301 52.7346 11.9682C52.7346 14.5035 51.4217 15.4089 50.1993 15.4089Z" fill="#A55C55"/>
<path d="M69.2814 11.9455C69.2814 10.542 68.8966 5.99219 63.9167 5.99219H57.8955V17.9214H63.1923C67.1084 17.9214 69.2814 15.7936 69.2814 11.9455ZM61.4041 15.0466V8.8896H62.717C65.5465 8.8896 65.7728 11.1985 65.7728 11.9002C65.7728 13.0773 65.4107 15.0466 62.9886 15.0466H61.4041Z" fill="#A55C55"/>
<path d="M77.7474 16.2013L78.268 17.9443H81.8897L77.5436 6.01514H74.0351L69.6437 17.9443H73.1523L73.6955 16.2013H77.7474ZM75.7101 9.84062H75.9138L77.0683 13.8019H74.4651L75.7101 9.84062Z" fill="#A55C55"/>
<path d="M89.7896 17.9217H93.9999L89.7444 11.6062L93.5698 6.01514H89.6991L87.8203 9.43317L85.9189 6.01514H81.8218L85.7378 11.5836L81.4143 17.9217H85.4209L87.6392 14.1867L89.7896 17.9217Z" fill="#A55C55"/>
<path d="M9.89832 8.55702L2.84358 4.35449L1 7.64563L6.23575 10.7596L9.89832 8.55702Z" fill="#ECC100"/>
<path d="M17.7642 10.7596L22.9999 7.64563L21.1564 4.35449L14.077 8.55702L17.7642 10.7596Z" fill="#ECC100"/>
<path d="M11.9876 7.31645L13.8312 6.22785V0H10.144V6.22785L11.9876 7.31645Z" fill="#ECC100"/>
<path d="M23 16.3544L13.8313 10.9114L11.9877 9.82275L1 16.3544L2.84358 19.6455L8.32514 16.3797C8.49721 16.2784 8.69386 16.2025 8.91508 16.2025C9.60335 16.2025 10.1441 16.7595 10.1441 17.4683V24H13.8313V17.4683C13.8313 16.7595 14.3721 16.2025 15.0603 16.2025C15.2816 16.2025 15.4782 16.2784 15.6503 16.3797L21.1564 19.6202L23 16.3544Z" fill="#ECC100"/>
</svg>
